Genre:Comedy | Drama | Romance
Language:English
IMDb:http://www.imdb.com/title/tt1532503/
Source:DVD Thanks!
Encoder:Tony

Format : AVI
Format/Info : Audio Video Interleave
File size : 656 MiB
Duration : 1h 39mn
Overall bit rate : 921 Kbps

Video
ID : 0
Format : MPEG-4 Visual
Format profile : Advanced Simple@L5
Format settings, BVOP : 1
Format settings, QPel : No
Format settings, GMC : No warppoints
Format settings, Matrix : Default (H.263)
Codec ID : XVID
Codec ID/Hint : XviD
Duration : 1h 39mn
Bit rate : 720 Kbps
Width : 640 pixels
Height : 360 pixels
Display aspect ratio : 16:9
Frame rate : 25.000 fps
Color space : YUV
Chroma subsampling : 4:2:0
Bit depth : 8 bits
Scan type : Progressive
Compression mode : Lossy
Bits/(Pixel*Frame) : 0.125
Stream size : 513 MiB (78%)
Writing library : XviD 1.2.1 (UTC 2008-12-04)

Audio
ID : 1
Format : AC-3
Format/Info : Audio Coding 3
Mode extension : CM (complete main)
Codec ID : 2000
Duration : 1h 39mn
Bit rate mode : Constant
Bit rate : 192 Kbps
Channel(s) : 2 channels
Channel positions : Front: L R
Sampling rate : 48.0 KHz
Bit depth : 16 bits
Compression mode : Lossy
Stream size : 137 MiB (21%)
Alignment : Aligned on interleaves
Interleave, duration : 40 ms (1.00 video frame)
Interleave, preload duration : 512 ms


Plot:
A young man is rocked by two announcements from his elderly father: that he has terminal cancer, and that he has a young male lover.